HIERARCHY
ROOT Hips
{
	OFFSET 48.118599 -7.462134 84.195099
	CHANNELS 6 Xposition Yposition Zposition Xrotation Yrotation Zrotation
	JOINT spine
	{
		OFFSET 0.000000 -0.359108 6.244789
		CHANNELS 3 Xrotation Yrotation Zrotation
		JOINT spine1
		{
			OFFSET 0.000000 -0.000001 9.069412
			CHANNELS 3 Xrotation Yrotation Zrotation
			JOINT spine2
			{
				OFFSET 0.000000 -0.000001 8.690140
				CHANNELS 3 Xrotation Yrotation Zrotation
				JOINT Neck
				{
					OFFSET 0.000000 -1.063723 22.311195
					CHANNELS 3 Xrotation Yrotation Zrotation
					JOINT Head
					{
						OFFSET 0.000000 -0.000001 6.740814
						CHANNELS 3 Xrotation Yrotation Zrotation
						End Site
						{
							OFFSET 0.000000 5.380967 16.316498
						}
					}
				}
				JOINT RightShoulder
				{
					OFFSET -3.659161 0.509512 9.384682
					CHANNELS 3 Xrotation Yrotation Zrotation
					JOINT RightArm
					{
						OFFSET 0.000000 -0.000002 12.308899
						CHANNELS 3 Xrotation Yrotation Zrotation
						JOINT RightArmRoll
						{
							OFFSET 0.000000 -0.000001 6.213745
							CHANNELS 3 Xrotation Yrotation Zrotation
							JOINT RightForeArm
							{
								OFFSET 0.000000 -0.000003 18.098495
								CHANNELS 3 Xrotation Yrotation Zrotation
								JOINT RightForeArmRoll
								{
									OFFSET 0.000000 -0.000001 6.972794
									CHANNELS 3 Xrotation Yrotation Zrotation
									JOINT RightHand
									{
										OFFSET 0.000000 -0.000002 13.992905
										CHANNELS 3 Xrotation Yrotation Zrotation
										End Site
										{
											OFFSET 0.000000 0.000000 0.100006
										}
									}
								}
							}
						}
					}
				}
				JOINT LeftShoulder
				{
					OFFSET 3.659161 0.509512 9.384682
					CHANNELS 3 Xrotation Yrotation Zrotation
					JOINT LeftArm
					{
						OFFSET 0.000000 -0.000002 12.308899
						CHANNELS 3 Xrotation Yrotation Zrotation
						JOINT LeftArmRoll
						{
							OFFSET 0.000000 -0.000001 6.213745
							CHANNELS 3 Xrotation Yrotation Zrotation
							JOINT LeftForeArm
							{
								OFFSET 0.000000 -0.000003 18.098495
								CHANNELS 3 Xrotation Yrotation Zrotation
								JOINT LeftForeArmRoll
								{
									OFFSET 0.000000 -0.000001 6.972794
									CHANNELS 3 Xrotation Yrotation Zrotation
									JOINT LeftHand
									{
										OFFSET 0.000000 -0.000002 13.992905
										CHANNELS 3 Xrotation Yrotation Zrotation
										End Site
										{
											OFFSET 0.000000 0.000000 0.100006
										}
									}
								}
							}
						}
					}
				}
			}
		}
	}
	JOINT RightUpLeg
	{
		OFFSET -5.535149 0.851454 -1.014999
		CHANNELS 3 Xrotation Yrotation Zrotation
		JOINT RightUpLegRoll
		{
			OFFSET 0.000000 -0.000003 16.407501
			CHANNELS 3 Xrotation Yrotation Zrotation
			JOINT RightLeg
			{
				OFFSET 0.000000 0.000003 -20.318100
				CHANNELS 3 Xrotation Yrotation Zrotation
				JOINT RightLegRoll
				{
					OFFSET 0.000000 -0.000003 20.384598
					CHANNELS 3 Xrotation Yrotation Zrotation
					JOINT RightFoot
					{
						OFFSET 0.000000 -0.000003 16.966797
						CHANNELS 3 Xrotation Yrotation Zrotation
						JOINT RightToeBase
						{
							OFFSET 0.000000 -0.000002 14.183395
							CHANNELS 3 Xrotation Yrotation Zrotation
							End Site
							{
								OFFSET 0.006012 0.791745 6.868896
							}
						}
					}
				}
			}
		}
	}
	JOINT LeftUpLeg
	{
		OFFSET 5.535149 0.851454 -1.014999
		CHANNELS 3 Xrotation Yrotation Zrotation
		JOINT LeftUpLegRoll
		{
			OFFSET 0.000000 -0.000003 16.407600
			CHANNELS 3 Xrotation Yrotation Zrotation
			JOINT LeftLeg
			{
				OFFSET 0.000000 -0.000003 20.318100
				CHANNELS 3 Xrotation Yrotation Zrotation
				JOINT LeftLegRoll
				{
					OFFSET 0.000000 -0.000003 20.573097
					CHANNELS 3 Xrotation Yrotation Zrotation
					JOINT LeftFoot
					{
						OFFSET 0.000000 -0.000003 16.778305
						CHANNELS 3 Xrotation Yrotation Zrotation
						JOINT LeftToeBase
						{
							OFFSET 0.000000 -0.000002 14.183395
							CHANNELS 3 Xrotation Yrotation Zrotation
							End Site
							{
								OFFSET -0.026943 0.791745 6.868896
							}
						}
					}
				}
			}
		}
	}
}
MOTION
Frames: 5
Frame Time: 0.041667
48.696999 -7.943142 93.082794 5.125786 1.156418 -2.409355 -2.100253 0.103486 0.111853 -0.197907 0.203943 0.226419 1.447170 0.206641 0.223961 -4.575119 3.562203 -0.212792 10.437556 -4.088056 -0.393984 -11.644731 -58.621137 -13.705600 -7.425152 -118.462678 1.838239 0.000000 -0.000001 -0.000001 17.936230 -8.931237 0.597889 0.000002 0.000005 -2.999998 -5.000243 -7.999062 0.000120 -22.677965 55.924745 26.910016 -10.762992 120.354517 -1.425598 0.000001 0.000007 0.000001 23.183612 4.351084 -0.253496 -0.000001 -0.000005 3.000000 -5.000317 7.999071 -0.000149 -12.130673 -179.049707 -2.289139 -179.999991 0.000005 -0.899995 165.451702 0.962140 -0.837327 -0.000004 -0.000001 0.040965 67.678391 6.824284 2.383727 25.456965 -7.355615 -0.000000 -10.025637 172.312736 -2.127828 -0.000005 -0.000005 -1.034950 -18.098830 -0.431290 0.974884 0.000003 -0.000001 -0.193057 68.609189 -6.811956 -2.363831 25.456957 7.355614 -0.000009 
48.656601 -7.976114 93.179794 5.098506 1.166169 -2.401370 -2.094591 0.097616 0.110928 -0.186576 0.192243 0.224396 1.458498 0.194917 0.222077 -4.704973 3.672030 -0.190534 10.533503 -4.170220 -0.385705 -11.808891 -58.432391 -13.892978 -7.364901 -118.640222 1.847707 0.000000 0.000000 0.000000 17.879902 -8.937654 0.595177 0.000004 0.000005 -3.000000 -5.000246 -7.999061 0.000118 -22.777033 55.842343 27.032497 -10.758128 120.464074 -1.371993 0.000001 0.000006 0.000000 23.156889 4.362396 -0.254829 -0.000001 -0.000005 2.999999 -5.000316 7.999071 -0.000151 -12.032526 -179.059119 -2.300847 -179.999991 0.000005 -0.899995 165.590751 0.975327 -0.834422 -0.000004 -0.000001 0.039932 67.693117 6.824415 2.382943 25.456960 -7.355617 -0.000000 -9.894186 172.318556 -2.098848 -0.000004 -0.000004 -1.035520 -17.848748 -0.479038 0.964910 0.000002 0.000000 -0.188234 68.593869 -6.813099 -2.361694 25.456955 7.355613 -0.000008 
48.684299 -7.983332 93.297089 5.071813 1.176616 -2.393040 -2.088621 0.091536 0.109890 -0.174617 0.180123 0.222142 1.470457 0.182771 0.219969 -4.836405 3.783002 -0.166769 10.625211 -4.253597 -0.376449 -11.972113 -58.240477 -14.079246 -7.312073 -118.820170 1.850232 0.000000 -0.000000 -0.000002 17.821302 -8.943462 0.592116 0.000005 0.000005 -2.999999 -5.000245 -7.999062 0.000119 -22.875750 55.761436 27.154617 -10.759589 120.573125 -1.313373 0.000001 0.000006 0.000001 23.126828 4.372915 -0.255855 -0.000003 -0.000005 3.000000 -5.000316 7.999071 -0.000149 -11.939773 -179.070539 -2.310373 -179.999991 0.000005 -0.899995 165.715142 0.986525 -0.831833 -0.000004 -0.000001 0.039085 67.706757 6.824478 2.382408 25.456959 -7.355617 -0.000001 -9.771398 172.324621 -2.069628 -0.000005 -0.000004 -1.036120 -17.616774 -0.527909 0.955420 0.000003 -0.000000 -0.183755 68.579675 -6.814211 -2.359580 25.456953 7.355613 -0.000010 
48.659000 -8.012525 93.402588 5.046319 1.187600 -2.384311 -2.082613 0.085290 0.108794 -0.162580 0.167671 0.219770 1.482497 0.170292 0.217746 -4.966749 3.894518 -0.141902 10.711349 -4.337751 -0.366514 -12.131912 -58.047510 -14.261523 -7.264964 -118.999408 1.847903 0.000000 -0.000000 0.000001 17.761468 -8.948798 0.588825 0.000003 0.000005 -3.000000 -5.000243 -7.999061 0.000119 -22.971796 55.683114 27.273517 -10.766063 120.679594 -1.251492 0.000001 0.000007 0.000000 23.093935 4.382714 -0.256612 -0.000004 -0.000005 3.000001 -5.000314 7.999073 -0.000150 -11.853124 -179.082000 -2.318131 -179.999991 0.000005 -0.899995 165.825505 0.995735 -0.829522 -0.000004 -0.000001 0.038403 67.719160 6.824605 2.381865 25.456957 -7.355615 0.000001 -9.657657 172.328938 -2.040215 -0.000004 -0.000005 -1.036720 -17.402612 -0.577166 0.946492 0.000002 -0.000000 -0.179619 68.566842 -6.815234 -2.357465 25.456955 7.355614 -0.000009 
48.678497 -8.036441 93.478989 5.022662 1.198969 -2.375146 -2.076833 0.078922 0.107695 -0.151015 0.154978 0.217397 1.494056 0.157571 0.215525 -5.093318 4.005953 -0.116368 10.790315 -4.422257 -0.356222 -12.285880 -57.855432 -14.436955 -7.221450 -119.176815 1.843292 0.000000 0.000000 -0.000001 17.701415 -8.953803 0.585428 0.000001 0.000006 -2.999999 -5.000247 -7.999062 0.000118 -23.063408 55.608743 27.386934 -10.775894 120.782279 -1.188585 0.000001 0.000006 0.000002 23.058906 4.391845 -0.257165 -0.000001 -0.000005 3.000000 -5.000318 7.999071 -0.000152 -11.772675 -179.093475 -2.324084 -179.999991 0.000005 -0.899995 165.922808 1.002958 -0.826517 -0.000004 -0.000001 0.037862 67.730294 6.824646 2.381484 25.456962 -7.355617 0.000002 -9.553263 172.333514 -2.011355 -0.000005 -0.000004 -1.037300 -17.205861 -0.626070 0.938183 0.000004 0.000000 -0.175826 68.555381 -6.816244 -2.355364 25.456955 7.355615 -0.000012 
